<svg viewBox="0 0 31 32" fill="none" xmlns="http://www.w3.org/2000/svg">
<path d="M29.609 3.67753H7.95107V15.6519C7.84694 15.6519 7.84694 15.6519 7.74282 15.6519C7.53457 15.6519 7.43045 15.6519 7.22219 15.7559H7.11807C5.86858 15.9642 5.13971 16.3807 4.72321 16.6931V15.2353H1.28711V17.0055H2.9531V26.7932H1.28711V28.6674H4.72321V27.0014H4.82734L10.6583 28.6674H10.8666H21.7996C22.6326 28.5633 24.1944 27.9385 24.1944 26.2726C24.1944 25.856 24.1944 25.5436 24.0904 25.3354H29.5048L29.609 3.67753ZM16.5934 5.44765H21.0707V9.925L18.78 8.88375L16.5934 9.925V5.44765ZM22.3202 25.5436C22.4244 25.6478 22.5285 25.856 22.5285 26.1684C22.5285 26.689 21.9037 26.7932 21.6955 26.8973H11.0748L5.24383 25.2313H4.72321V18.5673H5.34795L5.66033 18.2549C5.66033 18.2549 6.49332 17.3178 8.78406 17.3178C11.1789 17.3178 11.9078 18.1508 11.9078 18.1508L12.2202 18.5673H16.5934C16.5934 18.5673 16.9057 18.5673 17.1141 18.7756C17.2181 18.8797 17.3223 19.088 17.3223 19.4003C17.3223 19.6086 17.2181 19.8168 17.1141 19.921C16.9057 20.1292 16.5933 20.1292 16.4893 20.1292H10.4501L10.5542 21.0663C10.6583 22.524 11.4913 25.3354 14.1985 25.3354C17.1141 25.3354 21.6955 25.3354 21.7996 25.3354C21.9038 25.3354 22.2161 25.3354 22.3202 25.5436ZM27.8388 23.5652H21.9038H21.7996C21.7996 23.5652 17.2181 23.5652 14.1985 23.5652C13.1573 23.5652 12.7408 22.6282 12.5325 21.8993H16.3851C16.6975 21.8993 17.6347 21.8993 18.3635 21.2746C18.6759 20.9622 19.0924 20.4416 19.1965 19.4003C19.1965 18.3591 18.78 17.8385 18.4677 17.4219C17.7387 16.6931 16.6975 16.6931 16.5934 16.6931H12.9491C12.5325 16.2766 11.8037 15.8601 10.4501 15.6519C10.3459 15.6519 10.3459 15.6519 10.2418 15.6519C10.1377 15.6519 9.92943 15.6519 9.82531 15.5477V5.44765H14.8233V12.5281L18.78 10.758L22.7368 12.5281V5.44765H27.7347L27.8388 23.5652Z" fill="#82B800" stroke="#82B800" stroke-width="0.331034"/>
</svg>
